<svg width="14" height="16" viewBox="0 0 14 16" fill="none" xmlns="http://www.w3.org/2000/svg">
<path d="M9.25 13.5C9.08333 13.5 9 13.4167 9 13.25V4.75C9 4.58333 9.08333 4.5 9.25 4.5H9.75C9.91667 4.5 10 4.58333 10 4.75V13.25C10 13.4167 9.91667 13.5 9.75 13.5H9.25ZM4.25 13.5C4.08333 13.5 4 13.4167 4 13.25V4.75C4 4.58333 4.08333 4.5 4.25 4.5H4.75C4.91667 4.5 5 4.58333 5 4.75V13.25C5 13.4167 4.91667 13.5 4.75 13.5H4.25ZM13.75 2C13.9167 2 14 2.08333 14 2.25V2.75C14 2.91667 13.9167 3 13.75 3H13V14.5C13 14.9167 12.8542 15.2708 12.5625 15.5625C12.2708 15.8542 11.9167 16 11.5 16H2.5C2.08333 16 1.72917 15.8542 1.4375 15.5625C1.14583 15.2708 1 14.9167 1 14.5V3H0.25C0.0833333 3 0 2.91667 0 2.75V2.25C0 2.08333 0.0833333 2 0.25 2H3.5L4.5625 0.59375C4.6875 0.427083 4.86458 0.291667 5.09375 0.1875C5.32292 0.0625 5.54167 0 5.75 0H8.25C8.45833 0 8.67708 0.0625 8.90625 0.1875C9.13542 0.291667 9.3125 0.427083 9.4375 0.59375L10.5 2H13.75ZM5.34375 1.1875L4.75 2H9.25L8.65625 1.1875C8.55208 1.0625 8.41667 1 8.25 1H5.75C5.58333 1 5.44792 1.0625 5.34375 1.1875ZM12 14.5V3H2V14.5C2 14.6458 2.04167 14.7604 2.125 14.8438C2.22917 14.9479 2.35417 15 2.5 15H11.5C11.6458 15 11.7604 14.9479 11.8438 14.8438C11.9479 14.7604 12 14.6458 12 14.5ZM6.75 13.5C6.58333 13.5 6.5 13.4167 6.5 13.25V4.75C6.5 4.58333 6.58333 4.5 6.75 4.5H7.25C7.41667 4.5 7.5 4.58333 7.5 4.75V13.25C7.5 13.4167 7.41667 13.5 7.25 13.5H6.75Z" fill="#FA744F"/>
</svg>
