<svg width="19" height="16" viewBox="0 0 19 16" fill="none" xmlns="http://www.w3.org/2000/svg">
<path d="M18.1289 2.30078H0.246094C0.191406 2.30078 0.136719 2.27344 0.0820312 2.21875C0.0273437 2.16406 0 2.10937 0 2.05469V1.07031C0 1.01563 0.0273437 0.960937 0.0820312 0.90625C0.136719 0.851563 0.191406 0.824219 0.246094 0.824219H18.1289C18.1836 0.824219 18.2383 0.851563 18.293 0.90625C18.3477 0.960937 18.375 1.01563 18.375 1.07031V2.05469C18.375 2.10937 18.3477 2.16406 18.293 2.21875C18.2383 2.27344 18.1836 2.30078 18.1289 2.30078ZM18.1289 8.86328H0.246094C0.191406 8.86328 0.136719 8.83594 0.0820312 8.78125C0.0273437 8.72656 0 8.67188 0 8.61719V7.63281C0 7.57812 0.0273437 7.52344 0.0820312 7.46875C0.136719 7.41406 0.191406 7.38672 0.246094 7.38672H18.1289C18.1836 7.38672 18.2383 7.41406 18.293 7.46875C18.3477 7.52344 18.375 7.57812 18.375 7.63281V8.61719C18.375 8.67188 18.3477 8.72656 18.293 8.78125C18.2383 8.83594 18.1836 8.86328 18.1289 8.86328ZM18.1289 15.4258H0.246094C0.191406 15.4258 0.136719 15.3984 0.0820312 15.3438C0.0273437 15.2891 0 15.2344 0 15.1797V14.1953C0 14.1406 0.0273437 14.0859 0.0820312 14.0312C0.136719 13.9766 0.191406 13.9492 0.246094 13.9492H18.1289C18.1836 13.9492 18.2383 13.9766 18.293 14.0312C18.3477 14.0859 18.375 14.1406 18.375 14.1953V15.1797C18.375 15.2344 18.3477 15.2891 18.293 15.3438C18.2383 15.3984 18.1836 15.4258 18.1289 15.4258Z" fill="#0D0D0D"/>
</svg>
