<svg width="16" height="19" viewBox="0 0 16 19" fill="none" xmlns="http://www.w3.org/2000/svg">
<path d="M5.75 6.15625C5.75 6.39062 5.66797 6.58984 5.50391 6.75391C5.33984 6.91797 5.14062 7 4.90625 7H3.5V17.9688C3.5 18.1562 3.40625 18.25 3.21875 18.25H2.65625C2.46875 18.25 2.375 18.1562 2.375 17.9688V7H0.96875C0.734375 7 0.535156 6.91797 0.371094 6.75391C0.207031 6.58984 0.125 6.39062 0.125 6.15625V4.46875C0.125 4.23438 0.207031 4.03516 0.371094 3.87109C0.535156 3.70703 0.734375 3.625 0.96875 3.625H2.375V0.53125C2.375 0.34375 2.46875 0.25 2.65625 0.25H3.21875C3.40625 0.25 3.5 0.34375 3.5 0.53125V3.625H4.90625C5.14062 3.625 5.33984 3.70703 5.50391 3.87109C5.66797 4.03516 5.75 4.23438 5.75 4.46875V6.15625ZM4.625 5.875V4.75H1.25V5.875H4.625ZM9.96875 11.5C10.2031 11.5 10.4023 11.582 10.5664 11.7461C10.7305 11.9102 10.8125 12.1094 10.8125 12.3438V14.0312C10.8125 14.2656 10.7305 14.4648 10.5664 14.6289C10.4023 14.793 10.2031 14.875 9.96875 14.875H8.5625V17.9688C8.5625 18.1562 8.46875 18.25 8.28125 18.25H7.71875C7.53125 18.25 7.4375 18.1562 7.4375 17.9688V14.875H6.03125C5.79688 14.875 5.59766 14.793 5.43359 14.6289C5.26953 14.4648 5.1875 14.2656 5.1875 14.0312V12.3438C5.1875 12.1094 5.26953 11.9102 5.43359 11.7461C5.59766 11.582 5.79688 11.5 6.03125 11.5H7.4375V0.53125C7.4375 0.34375 7.53125 0.25 7.71875 0.25H8.28125C8.46875 0.25 8.5625 0.34375 8.5625 0.53125V11.5H9.96875ZM9.6875 13.75V12.625H6.3125V13.75H9.6875ZM15.0312 5.875C15.2656 5.875 15.4648 5.95703 15.6289 6.12109C15.793 6.28516 15.875 6.48438 15.875 6.71875V8.40625C15.875 8.64062 15.793 8.83984 15.6289 9.00391C15.4648 9.16797 15.2656 9.25 15.0312 9.25H13.625V17.9688C13.625 18.1562 13.5312 18.25 13.3438 18.25H12.7812C12.5938 18.25 12.5 18.1562 12.5 17.9688V9.25H11.0938C10.8594 9.25 10.6602 9.16797 10.4961 9.00391C10.332 8.83984 10.25 8.64062 10.25 8.40625V6.71875C10.25 6.48438 10.332 6.28516 10.4961 6.12109C10.6602 5.95703 10.8594 5.875 11.0938 5.875H12.5V0.53125C12.5 0.34375 12.5938 0.25 12.7812 0.25H13.3438C13.5312 0.25 13.625 0.34375 13.625 0.53125V5.875H15.0312ZM14.75 8.125V7H11.375V8.125H14.75Z" fill="#FA744F"/>
</svg>
