<svg width="13" height="10" viewBox="0 0 13 10" fill="none" xmlns="http://www.w3.org/2000/svg">
<path d="M11.6953 0.265625L4.01172 7.92188L1.30469 5.21484C1.25 5.14193 1.17708 5.10547 1.08594 5.10547C0.994792 5.10547 0.921875 5.14193 0.867188 5.21484L0.539062 5.51562C0.484375 5.58854 0.457031 5.67057 0.457031 5.76172C0.457031 5.85286 0.484375 5.92578 0.539062 5.98047L3.79297 9.23438C3.86589 9.30729 3.9388 9.34375 4.01172 9.34375C4.10286 9.34375 4.1849 9.30729 4.25781 9.23438L12.4609 1.03125C12.5156 0.976562 12.543 0.903646 12.543 0.8125C12.543 0.721354 12.5156 0.639323 12.4609 0.566406L12.1328 0.265625C12.0781 0.192708 12.0052 0.15625 11.9141 0.15625C11.8229 0.15625 11.75 0.192708 11.6953 0.265625Z" fill="#FA744F"/>
</svg>
