<svg width="14" height="15" viewBox="0 0 14 15" fill="none" xmlns="http://www.w3.org/2000/svg">
<path d="M7 0.96875C5.77865 0.96875 4.64844 1.27865 3.60938 1.89844C2.57031 2.5 1.74089 3.32031 1.12109 4.35938C0.519531 5.39844 0.21875 6.52865 0.21875 7.75C0.21875 8.97135 0.519531 10.1016 1.12109 11.1406C1.74089 12.1797 2.57031 13 3.60938 13.6016C4.64844 14.2214 5.77865 14.5312 7 14.5312C8.22135 14.5312 9.35156 14.2214 10.3906 13.6016C11.4297 13 12.25 12.1797 12.8516 11.1406C13.4714 10.1016 13.7812 8.97135 13.7812 7.75C13.7812 6.52865 13.4714 5.39844 12.8516 4.35938C12.25 3.32031 11.4297 2.5 10.3906 1.89844C9.35156 1.27865 8.22135 0.96875 7 0.96875ZM12.9062 7.75C12.9062 8.80729 12.6419 9.79167 12.1133 10.7031C11.5846 11.6146 10.8646 12.3346 9.95312 12.8633C9.0599 13.3919 8.07552 13.6562 7 13.6562C5.94271 13.6562 4.95833 13.3919 4.04688 12.8633C3.13542 12.3346 2.41536 11.6237 1.88672 10.7305C1.35807 9.81901 1.09375 8.83464 1.09375 7.77734C1.09375 6.70182 1.35807 5.70833 1.88672 4.79688C2.41536 3.88542 3.1263 3.16536 4.01953 2.63672C4.93099 2.10807 5.91536 1.84375 6.97266 1.84375C8.04818 1.84375 9.04167 2.10807 9.95312 2.63672C10.8646 3.16536 11.5846 3.88542 12.1133 4.79688C12.6419 5.6901 12.9062 6.67448 12.9062 7.75ZM8.83203 10.1562L6.61719 8.54297C6.52604 8.48828 6.48047 8.40625 6.48047 8.29688V3.92188C6.48047 3.83073 6.50781 3.75781 6.5625 3.70312C6.63542 3.63021 6.71745 3.59375 6.80859 3.59375H7.19141C7.28255 3.59375 7.35547 3.63021 7.41016 3.70312C7.48307 3.75781 7.51953 3.83073 7.51953 3.92188V7.91406L9.46094 9.33594C9.53385 9.39062 9.57031 9.46354 9.57031 9.55469C9.58854 9.6276 9.57031 9.70052 9.51562 9.77344L9.29688 10.1016C9.24219 10.1745 9.16927 10.2201 9.07812 10.2383C8.98698 10.2383 8.90495 10.2109 8.83203 10.1562Z" fill="#888888"/>
</svg>
