<svg width="12" height="12" viewBox="0 0 12 12" fill="none" xmlns="http://www.w3.org/2000/svg">
<path opacity="0.55" d="M7.23047 6.25L11.5898 10.6094C11.707 10.7266 11.707 10.8555 11.5898 10.9961L10.7812 11.8047C10.6406 11.9219 10.5117 11.9219 10.3945 11.8047L9.65625 11.0312L6.03516 7.44531L1.67578 11.8047C1.55859 11.9219 1.42969 11.9219 1.28906 11.8047L0.480469 10.9961C0.363281 10.8555 0.363281 10.7266 0.480469 10.6094L4.83984 6.25L0.480469 1.89062C0.363281 1.77344 0.363281 1.64453 0.480469 1.50391L1.28906 0.695312C1.42969 0.578125 1.55859 0.578125 1.67578 0.695312L6.03516 5.05469L10.3945 0.695312C10.5117 0.578125 10.6406 0.578125 10.7812 0.695312L11.5898 1.50391C11.707 1.64453 11.707 1.77344 11.5898 1.89062L10.8164 2.62891L7.23047 6.25Z" fill="#888888"/>
</svg>
