<svg width="8" height="6" viewBox="0 0 8 6" fill="none" xmlns="http://www.w3.org/2000/svg">
<path opacity="0.65" d="M3.75 5.21875L0.125 1.53125C0.0416667 1.46875 0 1.38542 0 1.28125C0 1.17708 0.03125 1.08333 0.09375 1L0.34375 0.78125C0.40625 0.697917 0.489583 0.65625 0.59375 0.65625C0.697917 0.65625 0.791667 0.697917 0.875 0.78125L4 3.96875L7.125 0.78125C7.20833 0.71875 7.30208 0.6875 7.40625 0.6875C7.51042 0.6875 7.59375 0.71875 7.65625 0.78125L7.90625 1C7.96875 1.08333 8 1.17708 8 1.28125C8 1.38542 7.96875 1.46875 7.90625 1.53125L4.28125 5.21875C4.19792 5.28125 4.10417 5.3125 4 5.3125C3.89583 5.3125 3.80208 5.28125 3.71875 5.21875H3.75Z" fill="black"/>
</svg>
