<svg width="14" height="19" viewBox="0 0 14 19" fill="none" xmlns="http://www.w3.org/2000/svg">
<path d="M13.0078 3.69531C13.3359 4.02344 13.5 4.42188 13.5 4.89062V16.5625C13.5 17.0312 13.3359 17.4297 13.0078 17.7578C12.6797 18.0859 12.2812 18.25 11.8125 18.25H1.6875C1.21875 18.25 0.820312 18.0859 0.492188 17.7578C0.164063 17.4297 0 17.0312 0 16.5625V1.9375C0 1.63281 0.0703125 1.35156 0.210938 1.09375C0.375 0.835938 0.585938 0.636719 0.84375 0.496094C1.10156 0.332031 1.38281 0.25 1.6875 0.25H8.85938C9.32812 0.25 9.72656 0.414063 10.0547 0.742188L13.0078 3.69531ZM9 1.41016V4.75H12.375C12.3281 4.65625 12.2695 4.57422 12.1992 4.50391L9.24609 1.55078C9.17578 1.48047 9.09375 1.43359 9 1.41016ZM12.375 16.5625V5.875H8.71875C8.48438 5.875 8.28516 5.79297 8.12109 5.62891C7.95703 5.46484 7.875 5.26563 7.875 5.03125V1.375H1.6875C1.52344 1.375 1.38281 1.43359 1.26562 1.55078C1.17188 1.64453 1.125 1.77344 1.125 1.9375V16.5625C1.125 16.7266 1.17188 16.8555 1.26562 16.9492C1.38281 17.0664 1.52344 17.125 1.6875 17.125H11.8125C11.9766 17.125 12.1055 17.0664 12.1992 16.9492C12.3164 16.8555 12.375 16.7266 12.375 16.5625ZM6.04688 7.87891C6.23438 7.66797 6.46875 7.5625 6.75 7.5625C7.03125 7.5625 7.26562 7.66797 7.45312 7.87891L9.84375 10.375C10.1484 10.7031 10.2188 11.0664 10.0547 11.4648C9.89062 11.8633 9.59766 12.0625 9.17578 12.0625H7.3125V15.1562C7.3125 15.3438 7.21875 15.4375 7.03125 15.4375H6.46875C6.28125 15.4375 6.1875 15.3438 6.1875 15.1562V12.0625H4.32422C3.92578 12.0625 3.63281 11.8633 3.44531 11.4648C3.28125 11.0664 3.35156 10.7031 3.65625 10.375L6.04688 7.87891ZM4.67578 10.9375H8.82422L6.75 8.75781L4.67578 10.9375Z" fill="#FA744F"/>
</svg>
