<svg width="12" height="11" viewBox="0 0 12 11" fill="none" xmlns="http://www.w3.org/2000/svg">
<path d="M10.125 0.25C10.4375 0.25 10.7031 0.359375 10.9219 0.578125C11.1406 0.796875 11.25 1.0625 11.25 1.375V9.625C11.25 9.9375 11.1406 10.2031 10.9219 10.4219C10.7031 10.6406 10.4375 10.75 10.125 10.75H6.91406V7.1875H8.27344L8.53125 5.5H6.91406V4.39844C6.91406 3.80469 7.22656 3.50781 7.85156 3.50781H8.57812V2.07812C8.14062 2 7.71094 1.96094 7.28906 1.96094C6.83594 1.96094 6.44531 2.04688 6.11719 2.21875C5.80469 2.39062 5.55469 2.64844 5.36719 2.99219C5.17969 3.33594 5.08594 3.74219 5.08594 4.21094V5.5H3.60938V7.1875H5.08594V10.75H1.875C1.5625 10.75 1.29688 10.6406 1.07812 10.4219C0.859375 10.2031 0.75 9.9375 0.75 9.625V1.375C0.75 1.0625 0.859375 0.796875 1.07812 0.578125C1.29688 0.359375 1.5625 0.25 1.875 0.25H10.125Z" fill="white"/>
</svg>
