<svg width="19" height="17" viewBox="0 0 19 17" fill="none" xmlns="http://www.w3.org/2000/svg">
<path d="M17.2422 1.46484C16.6328 0.925781 15.9297 0.585938 15.1328 0.445312C14.3359 0.304688 13.5391 0.363281 12.7422 0.621094C11.9688 0.878906 11.2891 1.3125 10.7031 1.92188L10 2.66016L9.29688 1.92188C8.80469 1.40625 8.19531 1.00781 7.46875 0.726562C6.67188 0.421875 5.88672 0.316406 5.11328 0.410156C4.24609 0.503906 3.44922 0.855469 2.72266 1.46484C2.01953 2.07422 1.52734 2.82422 1.24609 3.71484C0.964844 4.60547 0.917969 5.50781 1.10547 6.42188C1.31641 7.3125 1.75 8.09766 2.40625 8.77734L9.19141 15.7734C9.42578 16.0078 9.69531 16.125 10 16.125C10.3047 16.125 10.5742 16.0078 10.8086 15.7734L17.5938 8.74219C18.25 8.08594 18.6719 7.3125 18.8594 6.42188C19.0703 5.50781 19.0352 4.60547 18.7539 3.71484C18.4727 2.82422 17.9688 2.07422 17.2422 1.46484ZM16.7852 7.96875L10 15L3.21484 7.96875C2.74609 7.5 2.41797 6.92578 2.23047 6.24609C2.06641 5.54297 2.07812 4.86328 2.26562 4.20703C2.47656 3.45703 2.875 2.83594 3.46094 2.34375C4.07031 1.82812 4.73828 1.54688 5.46484 1.5C6.05078 1.45312 6.64844 1.57031 7.25781 1.85156C7.75 2.08594 8.16016 2.37891 8.48828 2.73047L10 4.27734L11.5117 2.73047C11.8164 2.37891 12.2266 2.09766 12.7422 1.88672C13.3516 1.60547 13.9492 1.47656 14.5352 1.5C15.2617 1.54688 15.918 1.82812 16.5039 2.34375C17.1133 2.83594 17.5234 3.45703 17.7344 4.20703C17.9219 4.86328 17.9219 5.54297 17.7344 6.24609C17.5703 6.92578 17.2539 7.5 16.7852 7.96875Z" fill="#FA744F"/>
</svg>
