<svg width="6" height="8" viewBox="0 0 6 8" fill="none" xmlns="http://www.w3.org/2000/svg">
<path opacity="0.65" d="M0.78125 3.71875L4.46875 0.09375C4.53125 0.03125 4.61458 0 4.71875 0C4.82292 0 4.91667 0.03125 5 0.09375L5.21875 0.34375C5.30208 0.40625 5.34375 0.489583 5.34375 0.59375C5.34375 0.697917 5.30208 0.791667 5.21875 0.875L2.03125 4L5.21875 7.125C5.28125 7.20833 5.3125 7.30208 5.3125 7.40625C5.3125 7.51042 5.28125 7.59375 5.21875 7.65625L5 7.875C4.91667 7.95833 4.82292 8 4.71875 8C4.61458 8 4.53125 7.95833 4.46875 7.875L0.78125 4.25C0.71875 4.1875 0.6875 4.10417 0.6875 4C0.6875 3.89583 0.71875 3.80208 0.78125 3.71875Z" fill="black"/>
</svg>
