<svg width="12" height="15" viewBox="0 0 12 15" fill="none" xmlns="http://www.w3.org/2000/svg">
<path d="M6.07227 3.60107C5.3431 3.60107 4.72331 3.85628 4.21289 4.3667C3.70247 4.87712 3.44727 5.49691 3.44727 6.22607C3.44727 6.95524 3.70247 7.57503 4.21289 8.08545C4.72331 8.59587 5.3431 8.85107 6.07227 8.85107C6.80143 8.85107 7.42122 8.59587 7.93164 8.08545C8.44206 7.57503 8.69727 6.95524 8.69727 6.22607C8.69727 5.49691 8.44206 4.87712 7.93164 4.3667C7.42122 3.85628 6.80143 3.60107 6.07227 3.60107ZM6.07227 7.97607C5.59831 7.97607 5.18815 7.8029 4.8418 7.45654C4.49544 7.11019 4.32227 6.70003 4.32227 6.22607C4.32227 5.75212 4.49544 5.34196 4.8418 4.99561C5.18815 4.64925 5.59831 4.47607 6.07227 4.47607C6.54622 4.47607 6.95638 4.64925 7.30273 4.99561C7.64909 5.34196 7.82227 5.75212 7.82227 6.22607C7.82227 6.70003 7.64909 7.11019 7.30273 7.45654C6.95638 7.8029 6.54622 7.97607 6.07227 7.97607ZM6.07227 0.976074C5.12435 0.976074 4.24935 1.21305 3.44727 1.68701C2.64518 2.16097 2.00716 2.79899 1.5332 3.60107C1.05924 4.40316 0.822266 5.27816 0.822266 6.22607C0.822266 6.80941 0.895182 7.32894 1.04102 7.78467C1.18685 8.22217 1.4694 8.76904 1.88867 9.42529C2.18034 9.88102 2.7819 10.7651 3.69336 12.0776L5.52539 14.7026C5.65299 14.8849 5.83529 14.9761 6.07227 14.9761C6.30924 14.9761 6.49154 14.8849 6.61914 14.7026L8.45117 12.0776C9.36263 10.7651 9.96419 9.88102 10.2559 9.42529C10.6751 8.76904 10.9577 8.22217 11.1035 7.78467C11.2493 7.32894 11.3223 6.80941 11.3223 6.22607C11.3223 5.27816 11.0853 4.40316 10.6113 3.60107C10.1374 2.79899 9.49935 2.16097 8.69727 1.68701C7.89518 1.21305 7.02018 0.976074 6.07227 0.976074ZM6.07227 13.937C5.63477 13.299 5.06966 12.4878 4.37695 11.5034C3.50195 10.2456 2.92773 9.41618 2.6543 9.01514C2.27148 8.39535 2.01628 7.90316 1.88867 7.53857C1.76107 7.15576 1.69727 6.71826 1.69727 6.22607C1.69727 5.64274 1.80664 5.08675 2.02539 4.55811C2.24414 4.02946 2.56315 3.5555 2.98242 3.13623C3.40169 2.71696 3.87565 2.39795 4.4043 2.1792C4.93294 1.96045 5.48893 1.85107 6.07227 1.85107C6.6556 1.85107 7.21159 1.96045 7.74023 2.1792C8.26888 2.39795 8.74284 2.71696 9.16211 3.13623C9.58138 3.5555 9.90039 4.02946 10.1191 4.55811C10.3379 5.08675 10.4473 5.64274 10.4473 6.22607C10.4473 6.71826 10.3835 7.15576 10.2559 7.53857C10.1283 7.90316 9.87305 8.39535 9.49023 9.01514C9.2168 9.41618 8.64258 10.2456 7.76758 11.5034L6.07227 13.937Z" fill="#888888"/>
</svg>
