<svg width="12" height="19" viewBox="0 0 12 19" fill="none" xmlns="http://www.w3.org/2000/svg">
<path d="M8.01562 11.9741C7.35938 12.6304 6.5625 12.9585 5.625 12.9585C4.6875 12.9585 3.89062 12.6304 3.23438 11.9741C2.57812 11.3179 2.25 10.521 2.25 9.5835V3.9585C2.25 3.021 2.57812 2.22412 3.23438 1.56787C3.89062 0.911621 4.6875 0.583496 5.625 0.583496C6.5625 0.583496 7.35938 0.911621 8.01562 1.56787C8.67188 2.22412 9 3.021 9 3.9585V9.5835C9 10.521 8.67188 11.3179 8.01562 11.9741ZM3.375 3.9585V9.5835C3.375 10.1929 3.59766 10.7202 4.04297 11.1655C4.48828 11.6108 5.01562 11.8335 5.625 11.8335C6.23438 11.8335 6.76172 11.6108 7.20703 11.1655C7.65234 10.7202 7.875 10.1929 7.875 9.5835V3.9585C7.875 3.34912 7.65234 2.82178 7.20703 2.37646C6.76172 1.93115 6.23438 1.7085 5.625 1.7085C5.01562 1.7085 4.48828 1.93115 4.04297 2.37646C3.59766 2.82178 3.375 3.34912 3.375 3.9585ZM10.9688 7.3335C11.1562 7.3335 11.25 7.42725 11.25 7.61475V9.5835C11.25 11.0366 10.7578 12.3022 9.77344 13.3804C8.8125 14.4351 7.61719 15.0327 6.1875 15.1733V17.4585H8.71875C8.90625 17.4585 9 17.5522 9 17.7397V18.3022C9 18.4897 8.90625 18.5835 8.71875 18.5835H2.53125C2.34375 18.5835 2.25 18.4897 2.25 18.3022V17.7397C2.25 17.5522 2.34375 17.4585 2.53125 17.4585H5.0625V15.1733C3.63281 15.0327 2.42578 14.3999 1.44141 13.2749C0.480469 12.1499 0 10.8491 0 9.37256V7.61475C0 7.42725 0.09375 7.3335 0.28125 7.3335H0.84375C1.03125 7.3335 1.125 7.42725 1.125 7.61475V9.40771C1.125 10.2046 1.30078 10.9546 1.65234 11.6577C2.02734 12.3374 2.53125 12.8999 3.16406 13.3452C3.82031 13.7671 4.53516 14.0132 5.30859 14.0835C6.62109 14.1538 7.74609 13.7437 8.68359 12.853C9.64453 11.9624 10.125 10.8726 10.125 9.5835V7.61475C10.125 7.42725 10.2188 7.3335 10.4062 7.3335H10.9688Z" fill="#8D8D8D"/>
</svg>
