<svg width="17" height="17" viewBox="0 0 17 17" fill="none" xmlns="http://www.w3.org/2000/svg">
<path d="M15.4375 1.75C15.8333 2.14583 16.0312 2.625 16.0312 3.1875C16.0312 3.72917 15.8333 4.19792 15.4375 4.59375L4.4375 15.5938L0.875 16C0.625 16.0208 0.416667 15.9479 0.25 15.7812C0.0833333 15.6146 0.0104167 15.4062 0.03125 15.1562L0.4375 11.5938L11.4375 0.59375C11.8333 0.197917 12.3021 0 12.8438 0C13.4062 0 13.8854 0.197917 14.2812 0.59375L15.4375 1.75ZM5.875 10.8438C5.64583 11.0938 5.40625 11.1042 5.15625 10.875C4.92708 10.625 4.9375 10.3854 5.1875 10.1562L10.8125 4.5L9.875 3.5625L2.875 10.5625H3.96875V12.0625H5.46875V13.1562L12.4688 6.15625L11.5312 5.21875L5.875 10.8438ZM3.96875 14.6562L4.59375 14.0312V12.9375H3.09375V11.4375H2L1.375 12.0625L1.1875 13.9062L2.125 14.8438L3.96875 14.6562ZM14.75 3.875C14.9375 3.6875 15.0312 3.45833 15.0312 3.1875C15.0312 2.89583 14.9375 2.65625 14.75 2.46875L13.5625 1.28125C13.375 1.09375 13.1354 1 12.8438 1C12.5729 1 12.3438 1.09375 12.1562 1.28125L10.5938 2.84375L13.1875 5.4375L14.75 3.875Z" fill="#FA744F"/>
</svg>
