<svg width="39" height="33" viewBox="0 0 39 33" fill="none" xmlns="http://www.w3.org/2000/svg">
<path d="M15.1811 0.710724C12.5375 0.710724 10.3945 2.81332 10.3945 5.407V6.07301H13.7914V5.407C13.7914 4.65399 14.4136 4.04356 15.1811 4.04356H22.7272C23.4947 4.04356 24.1168 4.65399 24.1168 5.40699V6.07301H27.5137V5.40699C27.5137 2.81332 25.3707 0.710724 22.7272 0.710724H15.1811Z" fill="white"/>
<path d="M0.25293 9.6368C0.25293 8.83491 0.915483 8.18485 1.73278 8.18485H37.5184C38.3357 8.18485 38.9982 8.83491 38.9982 9.6368C38.9982 10.4387 38.3357 11.0887 37.5184 11.0887H1.73278C0.915483 11.0887 0.25293 10.4387 0.25293 9.6368Z" fill="white"/>
<path d="M4.29074 17.0287C4.29074 16.2268 4.95329 15.5767 5.77059 15.5767H37.5202C38.3375 15.5767 39.0001 16.2268 39.0001 17.0287C39.0001 17.8306 38.3375 18.4806 37.5202 18.4806H5.77059C4.95329 18.4806 4.29074 17.8306 4.29074 17.0287Z" fill="white"/>
<path d="M5.77059 22.7047C4.95329 22.7047 4.29074 23.3547 4.29074 24.1566C4.29074 24.9585 4.95329 25.6086 5.77059 25.6086H37.5202C38.3375 25.6086 39.0001 24.9585 39.0001 24.1566C39.0001 23.3547 38.3375 22.7047 37.5202 22.7047H5.77059Z" fill="white"/>
<path d="M0.25293 31.5481C0.25293 30.7462 0.915483 30.0961 1.73278 30.0961H37.5184C38.3357 30.0961 38.9982 30.7462 38.9982 31.5481C38.9982 32.3499 38.3357 33 37.5184 33H1.73278C0.915483 33 0.25293 32.3499 0.25293 31.5481Z" fill="white"/>
</svg>
