<svg width="11" height="11" viewBox="0 0 11 11" fill="none" xmlns="http://www.w3.org/2000/svg">
<path d="M0.390625 5.64062L0.859375 6.10938C0.90625 6.15625 0.96875 6.17969 1.04688 6.17969C1.125 6.17969 1.19531 6.15625 1.25781 6.10938L4.89062 2.47656V10.4688C4.89062 10.5469 4.91406 10.6094 4.96094 10.6562C5.02344 10.7188 5.09375 10.75 5.17188 10.75H5.82812C5.90625 10.75 5.96875 10.7188 6.01562 10.6562C6.07812 10.6094 6.10938 10.5469 6.10938 10.4688V2.47656L9.74219 6.10938C9.80469 6.15625 9.875 6.17969 9.95312 6.17969C10.0312 6.17969 10.0938 6.15625 10.1406 6.10938L10.6094 5.64062C10.6562 5.57812 10.6797 5.50781 10.6797 5.42969C10.6797 5.35156 10.6562 5.28906 10.6094 5.24219L5.6875 0.34375C5.64062 0.28125 5.57812 0.25 5.5 0.25C5.42188 0.25 5.35938 0.28125 5.3125 0.34375L0.390625 5.24219C0.34375 5.28906 0.320312 5.35156 0.320312 5.42969C0.320312 5.50781 0.34375 5.57812 0.390625 5.64062Z" fill="white"/>
</svg>
